<svg width="133" height="31" viewBox="0 0 133 31" fill="none" xmlns="http://www.w3.org/2000/svg">
<path d="M45.4021 14.7043C45.4021 16.215 45.1162 17.6235 44.5458 18.9306C43.9744 20.2384 43.201 21.3891 42.2257 22.3833C41.2495 23.378 40.0987 24.1606 38.7728 24.7314C37.4468 25.3028 36.0287 25.5874 34.519 25.5874H7.11808V30.5041H0.48877V0.230492L34.519 0.175293C36.0287 0.175293 37.4468 0.461166 38.7728 1.03126C40.0987 1.60268 41.2491 2.38462 42.2257 3.3794C43.201 4.37351 43.9747 5.53386 44.5458 6.85946C45.1162 8.18539 45.4021 9.60353 45.4021 11.1135V14.7043ZM34.519 18.9029C35.6972 18.9029 36.7013 18.4983 37.5298 17.6876C38.3583 16.8779 38.7728 15.8838 38.7728 14.7046V11.1139C38.7728 9.93534 38.3583 8.93164 37.5298 8.1031C36.7009 7.27423 35.6972 6.86013 34.519 6.86013H7.11808V18.9032H34.519V18.9029Z" fill="black"/>
<path d="M55.5114 30.5044H48.8825V2.05383H55.5118V30.5044H55.5114Z" fill="black"/>
<path d="M86.8898 30.5044H69.5434C68.0327 30.5044 66.6156 30.2195 65.2897 29.6484C63.9637 29.0777 62.8123 28.304 61.837 27.328C60.8607 26.3524 60.0874 25.201 59.5166 23.8751C58.9452 22.5495 58.6603 21.132 58.6603 19.6213C58.6603 18.1116 58.9452 16.6935 59.5166 15.3673C60.0871 14.0417 60.8604 12.8909 61.837 11.9146C62.8123 10.9393 63.9637 10.1657 65.2897 9.59425C66.6156 9.02382 68.0327 8.73828 69.5434 8.73828H86.6135C88.1232 8.73828 89.542 9.02415 90.8676 9.59425C92.1932 10.1657 93.3443 10.9393 94.3206 11.9146C95.2962 12.8909 96.0695 14.0417 96.6409 15.3673C97.211 16.6932 97.4966 18.1113 97.4966 19.6213V30.5044H90.8676V19.6213C90.8676 18.4428 90.4532 17.4391 89.6246 16.6106C88.7958 15.7817 87.7924 15.3676 86.6139 15.3676H69.5437C68.3645 15.3676 67.3615 15.782 66.533 16.6106C65.7041 17.4394 65.29 18.4431 65.29 19.6213C65.29 20.8005 65.7044 21.8036 66.533 22.6321C67.3615 23.4603 68.3645 23.8747 69.5437 23.8747H86.8902L86.8898 30.5044Z" fill="black"/>
<path d="M105.245 5.9205H100.355C99.8748 5.9205 99.4855 5.53119 99.4855 5.05099V1.05239C99.4855 0.572183 99.8748 0.182861 100.355 0.182861H105.245C105.725 0.182861 106.115 0.572183 106.115 1.05239V5.05099C106.115 5.53119 105.725 5.9205 105.245 5.9205ZM99.4855 8.73826H106.115V30.5044H99.4855V8.73826Z" fill="black"/>
<path d="M109.263 30.5044V19.6213C109.263 18.1116 109.548 16.6935 110.119 15.3673C110.69 14.0417 111.464 12.8909 112.44 11.9146C113.415 10.9393 114.567 10.1657 115.893 9.59425C117.218 9.02382 118.636 8.73828 120.146 8.73828H132.024V15.3673H120.146C118.967 15.3673 117.964 15.7817 117.135 16.6102C116.307 17.4391 115.893 18.4428 115.893 19.621V30.504H109.263V30.5044Z" fill="black"/>
</svg>
